<?xml version="1.0" standalone="no"?>
<!DOCTYPE svg PUBLIC "-//W3C//DTD SVG 20010904//EN"
 "http://www.w3.org/TR/2001/REC-SVG-20010904/DTD/svg10.dtd">
<svg version="1.0" xmlns="http://www.w3.org/2000/svg"
 width="192.000000pt" height="192.000000pt" viewBox="0 0 192.000000 192.000000"
 preserveAspectRatio="xMidYMid meet">

<g transform="translate(0.000000,192.000000) scale(0.100000,-0.100000)"
fill="#000000" stroke="none">
<path d="M850 1891 c0 -4 -35 -11 -77 -15 -43 -3 -80 -11 -81 -16 -2 -6 -21
-13 -43 -16 -21 -4 -39 -10 -39 -14 0 -4 -16 -11 -35 -14 -19 -4 -35 -11 -35
-15 0 -5 -11 -12 -25 -15 -14 -4 -25 -11 -25 -16 0 -6 -7 -10 -15 -10 -8 0
-23 -9 -32 -20 -10 -11 -21 -20 -26 -20 -9 0 -19 -8 -87 -71 -28 -26 -50 -51
-50 -56 0 -6 -11 -19 -25 -29 -13 -10 -27 -31 -30 -46 -4 -15 -11 -28 -16 -28
-5 0 -9 -7 -9 -15 0 -8 -4 -15 -10 -15 -5 0 -12 -16 -16 -35 -3 -19 -10 -35
-14 -35 -4 0 -11 -20 -14 -45 -4 -25 -11 -45 -17 -45 -5 0 -9 -11 -9 -25 0
-14 -4 -25 -10 -25 -5 0 -13 -18 -16 -40 -4 -22 -10 -40 -15 -40 -5 0 -9 -13
-9 -30 0 -16 -4 -30 -9 -30 -5 0 -13 -29 -16 -65 -4 -36 -11 -65 -16 -65 -5 0
-9 -67 -9 -150 0 -82 4 -150 9 -150 5 0 12 -29 16 -65 3 -36 11 -65 16 -65 5
0 9 -9 9 -20 0 -11 4 -20 9 -20 5 0 12 -14 16 -30 4 -17 11 -30 16 -30 5 0 9
-7 9 -15 0 -8 4 -15 9 -15 5 0 12 -12 16 -27 3 -15 17 -37 31 -50 13 -12 24
-25 24 -28 0 -12 121 -125 134 -125 6 0 19 -9 29 -20 9 -11 24 -20 32 -20 8 0
15 -4 15 -10 0 -5 16 -12 35 -16 19 -3 35 -10 35 -14 0 -5 13 -11 30 -15 17
-4 30 -10 30 -15 0 -4 18 -10 40 -14 22 -3 40 -10 40 -15 0 -5 39 -12 88 -16
48 -4 90 -13 94 -19 10 -15 347 -14 356 1 4 6 40 14 80 18 39 4 72 10 72 15 0
4 18 10 40 14 22 3 40 10 40 15 0 5 18 11 40 15 22 3 40 10 40 15 0 5 14 12
30 16 17 4 30 11 30 16 0 5 11 11 25 15 14 3 25 10 25 14 0 5 10 12 22 16 12
4 35 20 51 35 16 16 33 29 38 29 5 0 11 11 15 25 3 14 10 25 14 25 15 0 59 50
66 74 3 14 10 26 15 26 5 0 9 5 9 11 0 6 7 17 15 25 8 9 15 24 15 35 0 10 5
19 10 19 6 0 10 11 10 24 0 13 4 26 10 28 5 2 13 26 16 53 4 28 12 53 18 57
16 10 15 356 0 366 -7 4 -15 33 -19 65 -4 31 -11 57 -16 57 -5 0 -9 14 -9 30
0 17 -4 30 -9 30 -5 0 -11 18 -15 40 -3 22 -11 40 -16 40 -6 0 -10 11 -10 25
0 14 -4 25 -10 25 -5 0 -12 16 -16 35 -3 19 -10 35 -14 35 -4 0 -10 18 -14 40
-3 22 -11 40 -16 40 -6 0 -10 7 -10 15 0 8 -4 15 -9 15 -5 0 -12 14 -16 30 -4
17 -10 30 -14 30 -14 0 -58 46 -65 68 -4 12 -15 24 -26 27 -10 3 -21 12 -24
20 -3 8 -13 15 -23 15 -10 1 -29 14 -43 30 -13 17 -32 30 -42 30 -10 0 -18 4
-18 9 0 5 -11 12 -25 15 -14 4 -25 11 -25 16 0 5 -18 13 -40 16 -22 4 -40 10
-40 14 0 5 -13 11 -30 15 -16 4 -30 10 -30 15 0 4 -36 11 -80 15 -44 4 -80 11
-80 16 0 5 -56 9 -125 9 -69 0 -125 -4 -125 -9z m289 -89 c3 -5 32 -12 64 -16
31 -4 57 -11 57 -16 0 -5 14 -11 30 -15 17 -4 30 -10 30 -15 0 -4 15 -11 34
-14 19 -4 37 -13 40 -21 3 -8 12 -15 20 -15 9 0 42 -26 75 -57 33 -32 71 -67
85 -78 14 -11 25 -26 26 -32 0 -7 4 -13 10 -13 5 0 12 -11 16 -25 3 -14 10
-25 15 -25 4 0 11 -16 15 -35 3 -19 10 -35 15 -35 5 0 9 -7 9 -15 0 -8 4 -15
9 -15 11 0 23 -92 15 -113 -3 -9 -15 -19 -27 -23 -12 -4 -27 -13 -35 -20 -7
-8 -20 -14 -28 -14 -8 0 -14 -4 -14 -10 0 -5 -11 -12 -25 -16 -14 -3 -25 -10
-25 -15 0 -5 -6 -9 -14 -9 -8 0 -22 -8 -32 -17 -19 -19 -92 -23 -103 -5 -3 6
-19 14 -34 17 -15 4 -27 11 -27 16 0 5 -6 9 -14 9 -8 0 -31 16 -52 35 -20 19
-43 35 -50 35 -8 0 -14 5 -14 10 0 6 -7 10 -15 10 -20 0 -19 26 0 42 47 39 47
40 43 102 -3 33 -10 62 -16 64 -7 2 -12 8 -12 14 0 18 -30 39 -65 45 -19 3
-35 10 -35 14 0 5 -18 9 -39 9 -56 0 -74 21 -69 82 l3 48 -43 0 c-43 0 -44 0
-37 -30 4 -16 4 -43 0 -60 -6 -28 -10 -30 -51 -30 l-44 0 0 60 0 60 -40 0 -40
0 0 -44 c0 -75 -2 -76 -95 -76 -100 0 -115 -5 -115 -37 0 -38 23 -53 79 -53
l51 0 0 -113 c0 -124 -8 -141 -70 -153 -16 -4 -31 -12 -34 -20 -3 -8 -12 -14
-21 -14 -8 0 -15 -4 -15 -9 0 -5 -16 -12 -35 -15 -19 -4 -35 -11 -35 -15 0 -5
-11 -12 -25 -15 -14 -4 -25 -11 -25 -16 0 -20 -40 -9 -70 20 -16 16 -30 33
-30 37 0 4 -18 24 -40 44 -34 32 -40 44 -40 78 0 23 5 41 10 41 6 0 10 14 10
30 0 17 4 30 9 30 5 0 11 18 15 40 3 22 11 40 16 40 6 0 10 7 10 15 0 9 7 18
15 21 8 4 15 12 15 20 0 8 4 14 10 14 5 0 12 11 16 25 3 14 10 25 14 25 5 0
29 20 53 45 25 25 50 45 55 45 5 0 19 9 32 20 13 11 29 20 35 20 7 0 15 7 19
15 3 8 15 15 26 15 11 0 20 4 20 10 0 5 17 12 38 16 20 4 40 11 43 17 4 5 27
12 53 14 25 3 46 9 46 14 0 4 21 10 48 12 75 7 295 -1 301 -11z m-204 -342
c84 0 114 -9 121 -36 3 -13 10 -24 15 -24 5 0 9 -11 9 -25 0 -23 -12 -39 -67
-85 -7 -5 -51 -10 -98 -10 l-85 0 0 90 c0 83 1 90 20 90 11 0 20 6 21 13 0 10
2 10 6 0 3 -8 25 -13 58 -13z m75 -250 c0 -5 8 -10 19 -10 24 0 34 -37 14 -53
-8 -7 -22 -20 -31 -29 -9 -10 -22 -18 -29 -18 -7 0 -13 -5 -13 -11 0 -17 -27
-39 -49 -39 -12 0 -21 4 -21 9 0 5 -10 13 -22 17 -38 12 -48 30 -48 88 l0 56
90 0 c53 0 90 -4 90 -10z m180 -59 c0 -5 16 -12 35 -15 19 -4 35 -11 35 -16 0
-4 14 -11 30 -15 17 -4 30 -10 30 -15 0 -4 16 -11 35 -14 19 -4 35 -11 35 -16
0 -4 14 -11 30 -15 17 -4 30 -11 30 -16 0 -5 11 -9 25 -9 14 0 25 4 25 10 0 5
15 12 34 16 19 3 37 12 40 20 3 8 15 14 26 14 11 0 20 5 20 10 0 6 7 10 15 10
9 0 18 7 21 15 4 8 15 15 25 15 11 0 22 7 25 15 4 8 17 15 30 15 19 0 24 -5
24 -25 0 -14 4 -25 9 -25 5 0 13 -36 17 -80 3 -44 11 -80 15 -80 5 0 9 -54 9
-120 0 -66 -4 -120 -9 -120 -4 0 -12 -31 -15 -70 -4 -38 -11 -70 -15 -70 -5 0
-11 -18 -15 -40 -3 -22 -11 -40 -16 -40 -6 0 -10 -7 -10 -15 0 -8 -4 -15 -9
-15 -5 0 -12 -14 -16 -30 -4 -17 -10 -30 -14 -30 -14 0 -58 -46 -65 -68 -4
-12 -15 -24 -26 -27 -10 -3 -21 -12 -24 -20 -3 -8 -12 -15 -21 -15 -9 0 -26
-11 -38 -24 -13 -14 -35 -28 -50 -31 -15 -4 -27 -11 -27 -15 0 -4 -16 -11 -35
-14 -19 -4 -35 -11 -35 -16 0 -5 -17 -12 -37 -16 -21 -4 -41 -11 -44 -15 -3
-5 -33 -12 -67 -15 -34 -4 -62 -11 -62 -15 0 -5 -83 -9 -185 -9 -102 0 -185 4
-185 9 0 4 -33 11 -72 15 -40 4 -75 11 -76 16 -2 6 -21 13 -43 16 -21 4 -39
10 -39 15 0 4 -16 11 -35 15 -19 3 -35 10 -35 15 0 5 -7 9 -15 9 -8 0 -23 9
-32 20 -10 11 -21 20 -26 20 -9 0 -19 8 -87 71 -28 26 -50 51 -50 56 0 6 -11
19 -25 29 -13 10 -27 31 -30 46 -4 15 -11 28 -16 28 -5 0 -9 7 -9 15 0 8 -4
15 -9 15 -5 0 -13 15 -16 32 -4 18 -11 35 -16 38 -4 3 -11 47 -15 98 -4 50
-11 92 -15 92 -5 0 -9 23 -9 50 0 28 4 50 9 50 4 0 11 46 15 103 4 56 11 104
17 105 5 2 9 17 9 33 0 43 40 37 54 -8 4 -13 11 -23 15 -23 14 0 58 -46 66
-68 4 -15 15 -22 31 -22 13 0 24 4 24 10 0 5 11 12 25 16 14 3 25 10 25 14 0
4 11 11 25 14 14 4 25 11 25 16 0 5 16 12 35 16 19 3 35 10 35 15 0 5 7 9 15
9 7 0 18 7 22 15 5 8 29 18 55 21 39 6 49 3 64 -15 10 -11 24 -21 32 -21 7 0
23 -11 36 -25 13 -14 28 -25 34 -25 6 0 23 -13 39 -29 16 -15 39 -31 51 -35
12 -4 22 -12 22 -17 0 -23 46 -5 88 36 26 25 54 52 63 60 9 8 21 15 28 15 6 0
28 18 49 40 35 37 62 51 62 31z"/>
</g>
</svg>
